HIERARCHY
ROOT Hips
{
	OFFSET 0.000000 89.005402 0.000000
	CHANNELS 6 Xposition Yposition Zposition Xrotation Yrotation Zrotation
	JOINT Spine
	{
		OFFSET 0.116900 10.681000 0.373400
		CHANNELS 3 Xrotation Yrotation Zrotation
		JOINT Spine1
		{
			OFFSET 0.000000 13.840401 0.053500
			CHANNELS 3 Xrotation Yrotation Zrotation
			JOINT Spine2
			{
				OFFSET 0.000000 14.712700 -0.366200
				CHANNELS 3 Xrotation Yrotation Zrotation
				JOINT Neck
				{
					OFFSET 0.000000 35.415497 -3.314200
					CHANNELS 3 Xrotation Yrotation Zrotation
					JOINT Head
					{
						OFFSET 0.000000 16.899200 1.218300
						CHANNELS 3 Xrotation Yrotation Zrotation
						JOINT HeadTop_End
						{
							OFFSET 0.000000 22.206207 2.192500
							CHANNELS 3 Xrotation Yrotation Zrotation
							End Site
							{
								OFFSET 0.000000 22.314178 0.000000
							}
						}
					}
				}
				JOINT LeftShoulder
				{
					OFFSET 12.896400 26.716293 -4.548400
					CHANNELS 3 Xrotation Yrotation Zrotation
					JOINT LeftArm
					{
						OFFSET 19.027000 -4.857010 -1.718400
						CHANNELS 3 Xrotation Yrotation Zrotation
						JOINT LeftForeArm
						{
							OFFSET 24.179897 0.000000 0.000000
							CHANNELS 3 Xrotation Yrotation Zrotation
							JOINT LeftHand
							{
								OFFSET 27.156403 0.000000 0.000000
								CHANNELS 3 Xrotation Yrotation Zrotation
								JOINT LeftHandIndex1
								{
									OFFSET 16.441200 0.000000 0.000000
									CHANNELS 3 Xrotation Yrotation Zrotation
									JOINT LeftHandIndex2
									{
										OFFSET 4.821899 0.000000 0.000000
										CHANNELS 3 Xrotation Yrotation Zrotation
										JOINT LeftHandIndex3
										{
											OFFSET 6.386497 0.000000 0.000000
											CHANNELS 3 Xrotation Yrotation Zrotation
											JOINT LeftHandIndex4
											{
												OFFSET 5.188988 0.000000 0.000000
												CHANNELS 3 Xrotation Yrotation Zrotation
												End Site
												{
													OFFSET -0.178703 5.185913 0.000177
												}
											}
										}
									}
								}
								JOINT LeftHandThumb1
								{
									OFFSET 6.534897 -5.032593 5.900300
									CHANNELS 3 Xrotation Yrotation Zrotation
									JOINT LeftHandThumb2
									{
										OFFSET 3.818176 -2.204422 2.204423
										CHANNELS 3 Xrotation Yrotation Zrotation
										JOINT LeftHandThumb3
										{
											OFFSET 3.252098 -1.877594 1.877601
											CHANNELS 3 Xrotation Yrotation Zrotation
											JOINT LeftHandThumb4
											{
												OFFSET 5.251778 -3.032120 3.032117
												CHANNELS 3 Xrotation Yrotation Zrotation
												End Site
												{
													OFFSET 0.000023 6.780014 0.000000
												}
											}
										}
									}
								}
							}
						}
					}
				}
				JOINT RightShoulder
				{
					OFFSET -12.896300 26.716293 -4.548400
					CHANNELS 3 Xrotation Yrotation Zrotation
					JOINT RightArm
					{
						OFFSET -19.027000 -4.857010 -1.718400
						CHANNELS 3 Xrotation Yrotation Zrotation
						JOINT RightForeArm
						{
							OFFSET -24.179897 0.000000 0.000000
							CHANNELS 3 Xrotation Yrotation Zrotation
							JOINT RightHand
							{
								OFFSET -27.156403 0.000000 0.000000
								CHANNELS 3 Xrotation Yrotation Zrotation
								JOINT RightHandThumb1
								{
									OFFSET -6.591202 -4.852203 5.988100
									CHANNELS 3 Xrotation Yrotation Zrotation
									JOINT RightHandThumb2
									{
										OFFSET -3.818176 -2.204422 2.204423
										CHANNELS 3 Xrotation Yrotation Zrotation
										JOINT RightHandThumb3
										{
											OFFSET -3.252098 -1.877594 1.877601
											CHANNELS 3 Xrotation Yrotation Zrotation
											JOINT RightHandThumb4
											{
												OFFSET -5.251778 -3.032120 3.032117
												CHANNELS 3 Xrotation Yrotation Zrotation
												End Site
												{
													OFFSET -0.000023 6.780014 0.000000
												}
											}
										}
									}
								}
								JOINT RightHandIndex1
								{
									OFFSET -16.029404 0.000000 0.000000
									CHANNELS 3 Xrotation Yrotation Zrotation
									JOINT RightHandIndex2
									{
										OFFSET -5.213303 0.000000 0.000000
										CHANNELS 3 Xrotation Yrotation Zrotation
										JOINT RightHandIndex3
										{
											OFFSET -6.386528 0.000000 0.000000
											CHANNELS 3 Xrotation Yrotation Zrotation
											JOINT RightHandIndex4
											{
												OFFSET -5.189026 0.000000 0.000000
												CHANNELS 3 Xrotation Yrotation Zrotation
												End Site
												{
													OFFSET 0.236702 5.183624 0.001972
												}
											}
										}
									}
								}
							}
						}
					}
				}
			}
		}
	}
	JOINT LeftUpLeg
	{
		OFFSET 14.073000 -7.904099 -1.463000
		CHANNELS 3 Xrotation Yrotation Zrotation
		JOINT LeftLeg
		{
			OFFSET -0.109806 -34.073280 4.093200
			CHANNELS 3 Xrotation Yrotation Zrotation
			JOINT LeftFoot
			{
				OFFSET 0.109806 -29.899420 -6.319000
				CHANNELS 3 Xrotation Yrotation Zrotation
				JOINT LeftToeBase
				{
					OFFSET 1.551100 -14.988700 20.535801
					CHANNELS 3 Xrotation Yrotation Zrotation
					JOINT LeftToe_End
					{
						OFFSET 0.221200 0.570800 13.248301
						CHANNELS 3 Xrotation Yrotation Zrotation
						End Site
						{
							OFFSET 0.000000 13.262435 0.000000
						}
					}
				}
			}
		}
	}
	JOINT RightUpLeg
	{
		OFFSET -13.839300 -7.904099 -1.463000
		CHANNELS 3 Xrotation Yrotation Zrotation
		JOINT RightLeg
		{
			OFFSET 0.109694 -34.073219 4.093300
			CHANNELS 3 Xrotation Yrotation Zrotation
			JOINT RightFoot
			{
				OFFSET -0.109694 -29.899384 -6.319200
				CHANNELS 3 Xrotation Yrotation Zrotation
				JOINT RightToeBase
				{
					OFFSET -1.551100 -14.988700 20.535801
					CHANNELS 3 Xrotation Yrotation Zrotation
					JOINT RightToe_End
					{
						OFFSET -0.221200 0.570900 13.248299
						CHANNELS 3 Xrotation Yrotation Zrotation
						End Site
						{
							OFFSET 0.000000 13.262440 0.000000
						}
					}
				}
			}
		}
	}
}
MOTION
Frames: 4
Frame Time: 0.033333
-0.608092 79.984398 0.469507 -6.088552 -43.050529 -3.827500 5.849339 4.638950 -1.446897 11.837360 9.031677 -3.106319 11.837361 9.031689 -3.106322 -4.303173 -1.270081 0.187924 -6.275206 20.431717 -0.368411 -0.000000 0.000000 0.000000 1.391989 -0.696198 -7.881138 -14.269773 2.393657 -63.289352 9.857459 -47.502511 5.909667 16.189186 0.904373 18.804257 -0.902004 -6.980958 -3.808409 0.029549 0.771565 -16.419614 -0.000003 -0.000007 -0.000005 0.000001 0.000002 -0.000001 9.163547 4.814120 -5.499016 -0.335406 0.032555 0.783697 -0.000009 -0.000017 -0.000006 0.000003 -0.000003 0.000004 1.410935 9.461497 9.792735 1.229565 -24.287246 60.516139 -6.661826 41.889219 8.051244 6.220775 12.307343 11.674101 -8.895816 -4.903156 -0.383706 7.904849 -19.192475 -2.856873 0.000001 -0.000000 0.000006 0.000001 -0.000000 -0.000001 -1.085460 -1.226189 4.525646 0.089848 -1.102086 16.938816 0.000002 -0.000001 -0.000005 -0.000001 -0.000000 -0.000000 -28.488176 5.184918 14.572241 34.641787 -14.320670 -0.204047 -3.673384 0.859115 -8.979495 -2.324460 -3.216930 0.802970 -0.000000 -0.000001 0.000000 1.415614 -14.234577 -17.388454 32.174508 -7.617832 -0.167275 -24.801626 -6.085220 20.111641 -1.784967 -0.356693 0.333180 -0.000000 -0.000000 -0.000000 
-0.608092 79.984398 0.469507 -6.088552 -43.050529 -3.827500 5.849339 4.638950 -1.446897 11.837360 9.031677 -3.106319 11.837361 9.031689 -3.106322 -4.303173 -1.270081 0.187924 -6.275206 20.431717 -0.368411 -0.000000 0.000000 0.000000 1.391989 -0.696198 -7.881138 -14.269776 2.393663 -63.289373 9.858406 -47.502432 5.910387 16.190313 0.903006 18.832698 -0.902002 -6.980952 -3.808395 0.029529 0.771544 -16.419647 -0.000006 -0.000009 -0.000004 0.000003 -0.000000 -0.000000 9.163547 4.814111 -5.499018 -0.335413 0.032575 0.783717 -0.000010 -0.000019 -0.000008 0.000002 -0.000002 0.000002 1.410935 9.461497 9.792735 1.229565 -24.287246 60.516139 -6.661826 41.889219 8.051244 6.220775 12.307343 11.674101 -8.895816 -4.903156 -0.383706 7.904850 -19.192466 -2.856873 -0.000001 -0.000000 0.000006 -0.000000 0.000000 -0.000002 -1.085460 -1.226189 4.525646 0.089850 -1.102089 16.938816 0.000002 -0.000002 -0.000006 -0.000001 -0.000001 -0.000000 -28.488176 5.184918 14.572241 34.641787 -14.320670 -0.204047 -3.673384 0.859115 -8.979495 -2.324460 -3.216930 0.802970 -0.000000 -0.000001 0.000000 1.415614 -14.234577 -17.388454 32.174508 -7.617832 -0.167275 -24.801626 -6.085220 20.111641 -1.784967 -0.356693 0.333180 -0.000000 -0.000000 -0.000000 
-0.590194 79.948608 0.467905 -5.989309 -42.876082 -3.838622 5.856143 4.624789 -1.434162 11.849442 9.003015 -3.080042 11.849436 9.002994 -3.080035 -3.657181 -1.658513 0.132117 -4.489897 18.811736 -0.200838 0.000000 -0.000000 -0.000000 1.366003 -0.828735 -7.871487 -14.263560 2.436786 -63.146335 9.749468 -47.293418 5.791337 16.137831 0.736419 18.693485 -0.916688 -7.003815 -3.840286 0.029425 0.771353 -16.404692 -0.000007 -0.000008 -0.000003 -0.000001 -0.000001 0.000002 8.961014 4.869240 -5.404619 -0.305788 0.077433 0.716639 -0.000006 -0.000018 -0.000011 -0.000000 0.000001 -0.000001 1.390826 9.517338 9.898089 0.869744 -23.701253 60.120698 -6.505830 41.359770 8.377375 6.399970 12.749980 10.829863 -8.895815 -4.903157 -0.383706 8.087692 -19.116129 -2.882623 0.000001 0.000000 0.000006 -0.000001 -0.000000 0.000000 -1.085407 -1.226720 4.540135 0.086418 -1.090917 17.055824 0.000002 -0.000003 -0.000006 -0.000001 0.000001 -0.000000 -28.703549 5.002294 14.536266 34.817388 -14.360766 -0.118930 -3.688633 0.864855 -9.002498 -2.325783 -3.204020 0.792258 0.000000 -0.000002 -0.000000 1.479599 -14.157221 -17.250671 32.165816 -7.802913 -0.140177 -24.814518 -6.136865 20.216216 -1.719746 -0.365836 0.342840 0.000000 -0.000000 -0.000000 
-0.528120 79.847511 0.487412 -5.715652 -42.622983 -3.856475 5.870662 4.585838 -1.409536 11.875543 8.924915 -3.032196 11.875533 8.924915 -3.032197 -2.229029 -2.491592 -0.094140 -0.499444 15.394077 0.335165 -0.000000 -0.000000 0.000000 1.303018 -1.135014 -7.849354 -14.182922 2.578614 -62.874630 9.534877 -47.168860 5.622003 16.001754 0.657083 18.370603 -0.943812 -7.037397 -3.816692 0.029472 0.771429 -16.411013 -0.000007 -0.000006 -0.000007 -0.000004 -0.000000 -0.000001 8.782218 4.882472 -5.292167 -0.369725 0.063398 0.698297 -0.000009 -0.000018 -0.000013 -0.000002 -0.000001 0.000001 1.335503 9.698366 10.130496 0.278156 -22.514518 59.452644 -5.874770 41.009060 8.869906 7.094213 13.277732 8.839575 -8.895818 -4.903157 -0.383705 8.323709 -19.123314 -2.873027 0.000002 -0.000000 0.000004 0.000000 -0.000001 -0.000001 -1.085130 -1.229688 4.618510 0.083718 -1.082092 17.148141 0.000002 -0.000001 -0.000005 0.000001 -0.000001 -0.000001 -29.252512 4.593810 14.528188 35.336783 -14.341843 0.020028 -3.814228 0.889927 -9.024221 -2.343204 -3.164290 0.757429 -0.000000 -0.000000 -0.000000 1.411036 -13.975936 -16.980042 32.307211 -8.081056 -0.122085 -24.876572 -6.208459 20.338695 -1.640164 -0.456446 0.428646 0.000000 0.000002 0.000000 
